<mxfile host="app.diagrams.net" agent="Mozilla/5.0 (Windows NT 10.0; Win64; x64) AppleWebKit/537.36 (KHTML, like Gecko) Chrome/135.0.0.0 Safari/537.36 Edg/135.0.0.0" version="26.2.9">
  <diagram id="C5RBs43oDa-KdzZeNtuy" name="Page-1">
    <mxGraphModel dx="1053" dy="933" grid="1" gridSize="10" guides="1" tooltips="1" connect="1" arrows="1" fold="1" page="1" pageScale="1" pageWidth="827" pageHeight="1169" math="0" shadow="0">
      <root>
        <mxCell id="WIyWlLk6GJQsqaUBKTNV-0" />
        <mxCell id="WIyWlLk6GJQsqaUBKTNV-1" parent="WIyWlLk6GJQsqaUBKTNV-0" />
        <mxCell id="wgwZrNYGx1wLASeRrXkP-7" style="edgeStyle=orthogonalEdgeStyle;rounded=0;orthogonalLoop=1;jettySize=auto;html=1;entryX=0.5;entryY=0;entryDx=0;entryDy=0;" edge="1" parent="WIyWlLk6GJQsqaUBKTNV-1" source="WIyWlLk6GJQsqaUBKTNV-3" target="wgwZrNYGx1wLASeRrXkP-1">
          <mxGeometry relative="1" as="geometry" />
        </mxCell>
        <mxCell id="WIyWlLk6GJQsqaUBKTNV-3" value="获取实时视频流" style="rounded=1;whiteSpace=wrap;html=1;fontSize=12;glass=0;strokeWidth=1;shadow=0;" parent="WIyWlLk6GJQsqaUBKTNV-1" vertex="1">
          <mxGeometry x="199.94" y="200" width="120" height="40" as="geometry" />
        </mxCell>
        <mxCell id="wgwZrNYGx1wLASeRrXkP-1" value="实时视频解析" style="rounded=1;whiteSpace=wrap;html=1;" vertex="1" parent="WIyWlLk6GJQsqaUBKTNV-1">
          <mxGeometry x="199.94" y="280" width="120" height="40" as="geometry" />
        </mxCell>
        <mxCell id="wgwZrNYGx1wLASeRrXkP-10" style="edgeStyle=orthogonalEdgeStyle;rounded=0;orthogonalLoop=1;jettySize=auto;html=1;entryX=0.5;entryY=0;entryDx=0;entryDy=0;" edge="1" parent="WIyWlLk6GJQsqaUBKTNV-1" source="wgwZrNYGx1wLASeRrXkP-2" target="wgwZrNYGx1wLASeRrXkP-6">
          <mxGeometry relative="1" as="geometry" />
        </mxCell>
        <mxCell id="wgwZrNYGx1wLASeRrXkP-11" value="是" style="edgeLabel;html=1;align=center;verticalAlign=middle;resizable=0;points=[];" vertex="1" connectable="0" parent="wgwZrNYGx1wLASeRrXkP-10">
          <mxGeometry x="-0.1905" relative="1" as="geometry">
            <mxPoint as="offset" />
          </mxGeometry>
        </mxCell>
        <mxCell id="wgwZrNYGx1wLASeRrXkP-2" value="检测警报&lt;div&gt;条件匹配&lt;/div&gt;" style="strokeWidth=2;html=1;shape=mxgraph.flowchart.decision;whiteSpace=wrap;" vertex="1" parent="WIyWlLk6GJQsqaUBKTNV-1">
          <mxGeometry x="199.94" y="360" width="120" height="70" as="geometry" />
        </mxCell>
        <mxCell id="wgwZrNYGx1wLASeRrXkP-8" style="edgeStyle=orthogonalEdgeStyle;rounded=0;orthogonalLoop=1;jettySize=auto;html=1;" edge="1" parent="WIyWlLk6GJQsqaUBKTNV-1" source="wgwZrNYGx1wLASeRrXkP-3" target="wgwZrNYGx1wLASeRrXkP-1">
          <mxGeometry relative="1" as="geometry" />
        </mxCell>
        <mxCell id="wgwZrNYGx1wLASeRrXkP-3" value="用户布控设置" style="shape=parallelogram;html=1;strokeWidth=2;perimeter=parallelogramPerimeter;whiteSpace=wrap;rounded=1;arcSize=12;size=0.23;" vertex="1" parent="WIyWlLk6GJQsqaUBKTNV-1">
          <mxGeometry x="379.94" y="280" width="120" height="40" as="geometry" />
        </mxCell>
        <mxCell id="wgwZrNYGx1wLASeRrXkP-4" style="edgeStyle=orthogonalEdgeStyle;rounded=0;orthogonalLoop=1;jettySize=auto;html=1;entryX=-0.011;entryY=0.583;entryDx=0;entryDy=0;entryPerimeter=0;" edge="1" parent="WIyWlLk6GJQsqaUBKTNV-1" source="wgwZrNYGx1wLASeRrXkP-2" target="wgwZrNYGx1wLASeRrXkP-1">
          <mxGeometry relative="1" as="geometry">
            <Array as="points">
              <mxPoint x="139.94" y="395" />
              <mxPoint x="139.94" y="303" />
            </Array>
          </mxGeometry>
        </mxCell>
        <mxCell id="wgwZrNYGx1wLASeRrXkP-5" value="否" style="edgeLabel;html=1;align=center;verticalAlign=middle;resizable=0;points=[];" vertex="1" connectable="0" parent="wgwZrNYGx1wLASeRrXkP-4">
          <mxGeometry x="0.0711" relative="1" as="geometry">
            <mxPoint as="offset" />
          </mxGeometry>
        </mxCell>
        <mxCell id="wgwZrNYGx1wLASeRrXkP-16" style="edgeStyle=orthogonalEdgeStyle;rounded=0;orthogonalLoop=1;jettySize=auto;html=1;entryX=0.5;entryY=0;entryDx=0;entryDy=0;" edge="1" parent="WIyWlLk6GJQsqaUBKTNV-1" source="wgwZrNYGx1wLASeRrXkP-6" target="wgwZrNYGx1wLASeRrXkP-12">
          <mxGeometry relative="1" as="geometry" />
        </mxCell>
        <mxCell id="wgwZrNYGx1wLASeRrXkP-20" value="" style="edgeStyle=orthogonalEdgeStyle;rounded=0;orthogonalLoop=1;jettySize=auto;html=1;" edge="1" parent="WIyWlLk6GJQsqaUBKTNV-1" source="wgwZrNYGx1wLASeRrXkP-6" target="wgwZrNYGx1wLASeRrXkP-19">
          <mxGeometry relative="1" as="geometry" />
        </mxCell>
        <mxCell id="wgwZrNYGx1wLASeRrXkP-6" value="威胁程度解析" style="rounded=1;whiteSpace=wrap;html=1;" vertex="1" parent="WIyWlLk6GJQsqaUBKTNV-1">
          <mxGeometry x="199.94" y="470" width="120" height="30" as="geometry" />
        </mxCell>
        <mxCell id="wgwZrNYGx1wLASeRrXkP-9" style="edgeStyle=orthogonalEdgeStyle;rounded=0;orthogonalLoop=1;jettySize=auto;html=1;entryX=0.5;entryY=0;entryDx=0;entryDy=0;entryPerimeter=0;" edge="1" parent="WIyWlLk6GJQsqaUBKTNV-1" source="wgwZrNYGx1wLASeRrXkP-1" target="wgwZrNYGx1wLASeRrXkP-2">
          <mxGeometry relative="1" as="geometry" />
        </mxCell>
        <mxCell id="wgwZrNYGx1wLASeRrXkP-17" style="edgeStyle=orthogonalEdgeStyle;rounded=0;orthogonalLoop=1;jettySize=auto;html=1;entryX=0.5;entryY=0;entryDx=0;entryDy=0;" edge="1" parent="WIyWlLk6GJQsqaUBKTNV-1" source="wgwZrNYGx1wLASeRrXkP-12" target="wgwZrNYGx1wLASeRrXkP-14">
          <mxGeometry relative="1" as="geometry" />
        </mxCell>
        <mxCell id="wgwZrNYGx1wLASeRrXkP-12" value="生成预警通知" style="rounded=1;whiteSpace=wrap;html=1;" vertex="1" parent="WIyWlLk6GJQsqaUBKTNV-1">
          <mxGeometry x="199.94" y="520" width="120" height="30" as="geometry" />
        </mxCell>
        <mxCell id="wgwZrNYGx1wLASeRrXkP-14" value="更新摄像头状态" style="rounded=1;whiteSpace=wrap;html=1;" vertex="1" parent="WIyWlLk6GJQsqaUBKTNV-1">
          <mxGeometry x="199.94" y="580" width="120" height="30" as="geometry" />
        </mxCell>
        <mxCell id="wgwZrNYGx1wLASeRrXkP-19" value="地图可视化显示" style="rounded=1;whiteSpace=wrap;html=1;" vertex="1" parent="WIyWlLk6GJQsqaUBKTNV-1">
          <mxGeometry x="359.94" y="470" width="120" height="30" as="geometry" />
        </mxCell>
        <mxCell id="wgwZrNYGx1wLASeRrXkP-23" style="edgeStyle=orthogonalEdgeStyle;rounded=0;orthogonalLoop=1;jettySize=auto;html=1;entryX=0.5;entryY=0;entryDx=0;entryDy=0;" edge="1" parent="WIyWlLk6GJQsqaUBKTNV-1" source="wgwZrNYGx1wLASeRrXkP-22" target="WIyWlLk6GJQsqaUBKTNV-3">
          <mxGeometry relative="1" as="geometry" />
        </mxCell>
        <mxCell id="wgwZrNYGx1wLASeRrXkP-22" value="开始" style="rounded=1;whiteSpace=wrap;html=1;fontSize=12;glass=0;strokeWidth=1;shadow=0;" vertex="1" parent="WIyWlLk6GJQsqaUBKTNV-1">
          <mxGeometry x="199.94" y="130" width="120" height="40" as="geometry" />
        </mxCell>
      </root>
    </mxGraphModel>
  </diagram>
</mxfile>
